<svg width="23" height="20" viewBox="0 0 23 20" fill="none" xmlns="http://www.w3.org/2000/svg">
<path d="M16.097 7.87804H8.58936V4.9594C8.58936 4.34014 8.87699 3.74625 9.38898 3.30837C9.90096 2.87049 10.5954 2.62449 11.3194 2.62449C12.0435 2.62449 12.7379 2.87049 13.2499 3.30837C13.7618 3.74625 14.0495 4.34014 14.0495 4.9594C14.0495 5.11421 14.1214 5.26269 14.2494 5.37216C14.3774 5.48163 14.551 5.54313 14.732 5.54313C14.913 5.54313 15.0866 5.48163 15.2146 5.37216C15.3426 5.26269 15.4145 5.11421 15.4145 4.9594C15.4145 4.03051 14.9831 3.13967 14.2151 2.48285C13.4471 1.82603 12.4055 1.45703 11.3194 1.45703C10.2333 1.45703 9.19174 1.82603 8.42376 2.48285C7.65578 3.13967 7.22434 4.03051 7.22434 4.9594V7.87804H6.54182C5.81801 7.87872 5.12407 8.12493 4.61226 8.56267C4.10044 9.0004 3.81256 9.5939 3.81177 10.213V16.634C3.81256 17.253 4.10044 17.8465 4.61226 18.2842C5.12407 18.722 5.81801 18.9682 6.54182 18.9689H16.097C16.8208 18.9682 17.5148 18.722 18.0266 18.2842C18.5384 17.8465 18.8263 17.253 18.8271 16.634V10.213C18.8263 9.5939 18.5384 9.0004 18.0266 8.56267C17.5148 8.12493 16.8208 7.87872 16.097 7.87804Z" fill="url(#paint0_linear_426_5549)"/>
<defs>
<linearGradient id="paint0_linear_426_5549" x1="4.61616" y1="1.45703" x2="20.5388" y2="16.5221" gradientUnits="userSpaceOnUse">
<stop offset="0.115" stop-color="#21262D"/>
<stop offset="0.885" stop-color="#414B66"/>
</linearGradient>
</defs>
</svg>
