<svg width="21" height="22" viewBox="0 0 21 22" fill="none" xmlns="http://www.w3.org/2000/svg">
<rect width="20" height="22" transform="translate(0.219727)" fill="#414B66"/>
<path d="M10.2194 10.9998C9.30273 10.9998 8.51801 10.6408 7.86523 9.92275C7.21246 9.2047 6.88607 8.3415 6.88607 7.33317C6.88607 6.32484 7.21246 5.46164 7.86523 4.74359C8.51801 4.02553 9.30273 3.6665 10.2194 3.6665C11.1361 3.6665 11.9208 4.02553 12.5736 4.74359C13.2263 5.46164 13.5527 6.32484 13.5527 7.33317C13.5527 8.3415 13.2263 9.2047 12.5736 9.92275C11.9208 10.6408 11.1361 10.9998 10.2194 10.9998ZM3.55273 18.3332V15.7665C3.55273 15.2471 3.67079 14.7696 3.9069 14.3342C4.14301 13.8988 4.4694 13.5665 4.88607 13.3373C5.7194 12.879 6.58398 12.5276 7.47982 12.2832C8.37565 12.0387 9.28885 11.9165 10.2194 11.9165C11.15 11.9165 12.0632 12.0387 12.959 12.2832C13.8548 12.5276 14.7194 12.879 15.5527 13.3373C15.9694 13.5665 16.2958 13.8988 16.5319 14.3342C16.768 14.7696 16.8861 15.2471 16.8861 15.7665V18.3332H3.55273ZM10.2194 9.1665C10.6777 9.1665 11.0701 8.98699 11.3965 8.62796C11.7229 8.26893 11.8861 7.83734 11.8861 7.33317C11.8861 6.829 11.7229 6.39741 11.3965 6.03838C11.0701 5.67935 10.6777 5.49984 10.2194 5.49984C9.76107 5.49984 9.36871 5.67935 9.04232 6.03838C8.71593 6.39741 8.55273 6.829 8.55273 7.33317C8.55273 7.83734 8.71593 8.26893 9.04232 8.62796C9.36871 8.98699 9.76107 9.1665 10.2194 9.1665ZM13.5527 14.3915V16.4998H15.2194V15.7665C15.2194 15.5984 15.1847 15.4457 15.1152 15.3082C15.0458 15.1707 14.9416 15.0637 14.8027 14.9873C14.6083 14.8651 14.4034 14.7544 14.1882 14.655C13.9729 14.5557 13.7611 14.4679 13.5527 14.3915ZM8.55273 13.9103V15.1248H11.8861V13.9103C11.6083 13.8491 11.3305 13.8071 11.0527 13.7842C10.775 13.7613 10.4972 13.7498 10.2194 13.7498C9.94162 13.7498 9.66385 13.7613 9.38607 13.7842C9.10829 13.8071 8.83051 13.8491 8.55273 13.9103ZM5.2194 16.4998H6.88607V14.3915C6.67773 14.4679 6.46593 14.5557 6.25065 14.655C6.03537 14.7544 5.83051 14.8651 5.63607 14.9873C5.49718 15.0637 5.39301 15.1707 5.32357 15.3082C5.25412 15.4457 5.2194 15.5984 5.2194 15.7665V16.4998Z" fill="#E8EAED"/>
</svg>
