<svg width="22" height="21" viewBox="0 0 22 21" fill="none" xmlns="http://www.w3.org/2000/svg">
<path d="M20.2738 8.45591C19.8346 6.56 18.67 4.83439 16.994 3.59707C15.2801 2.33884 13.1502 1.65379 10.9553 1.65479C8.36783 1.65479 5.95113 2.56942 4.14434 4.23035C2.39829 5.83749 1.44137 7.95943 1.44902 10.2037C1.44908 11.8492 1.97556 13.4584 2.96317 14.8319L3.14793 15.0676L2.12858 19.1136L7.00445 18.0006C7.00445 18.0006 7.10214 18.0306 7.17434 18.0559C7.24655 18.0812 7.86792 18.2999 8.5271 18.469C9.075 18.6093 10.215 18.8197 11.1082 18.8197C13.6417 18.8197 16.0074 17.9195 17.7692 16.2843C19.5152 14.662 20.4768 12.5049 20.4768 10.2084C20.4769 9.6193 20.4089 9.03184 20.2738 8.45591Z" fill="url(#paint0_linear_426_5543)"/>
<defs>
<linearGradient id="paint0_linear_426_5543" x1="2.46832" y1="1.65479" x2="18.1002" y2="20.454" gradientUnits="userSpaceOnUse">
<stop offset="0.115" stop-color="#21262D"/>
<stop offset="0.885" stop-color="#414B66"/>
</linearGradient>
</defs>
</svg>
