<svg width="24" height="24" viewBox="0 0 29 29" fill="none" xmlns="http://www.w3.org/2000/svg">
<path d="M23.9682 5.02805C21.2976 2.42805 17.7632 0.936798 14.2707 0.936798C10.7782 0.936798 7.24385 2.42805 4.57322 5.02805C1.79885 7.72867 0.270721 11.2493 0.270721 14.9368C0.270721 16.6037 0.817596 18.7549 2.32572 22.7837C3.83385 26.8124 6.83322 28.4993 8.1001 28.7749C8.46322 28.8543 8.88885 28.9368 9.27072 28.9368C9.92874 28.9374 10.5753 28.7649 11.1457 28.4368L12.0207 27.9368C12.9626 27.3855 13.2376 26.1787 12.6957 25.2274L7.26322 15.6918C7.13377 15.4636 6.96034 15.2634 6.75296 15.1027C6.54559 14.942 6.30839 14.8241 6.05512 14.7557C5.80184 14.6874 5.53752 14.67 5.27746 14.7045C5.0174 14.739 4.76678 14.8247 4.5401 14.9568L3.68447 15.4568C3.35562 15.6494 3.06013 15.8941 2.80947 16.1812C2.77836 16.2177 2.7374 16.2445 2.69149 16.2583C2.64557 16.2722 2.59663 16.2726 2.55051 16.2594C2.50439 16.2462 2.46304 16.2201 2.43138 16.184C2.39972 16.148 2.3791 16.1036 2.37197 16.0562C2.30897 15.6863 2.27512 15.312 2.27072 14.9368C2.27072 11.7924 3.58322 8.7818 5.96822 6.46117C8.27072 4.22117 11.2951 2.9368 14.2707 2.9368C17.2463 2.9368 20.2707 4.22117 22.5732 6.46117C24.9582 8.7818 26.2707 11.7924 26.2707 14.9368C26.2651 15.3121 26.23 15.6864 26.1657 16.0562C26.1586 16.1036 26.138 16.148 26.1063 16.184C26.0747 16.2201 26.0333 16.2462 25.9872 16.2594C25.9411 16.2726 25.8921 16.2722 25.8462 16.2583C25.8003 16.2445 25.7593 16.2177 25.7282 16.1812C25.4776 15.8941 25.1821 15.6494 24.8532 15.4568L23.9976 14.9568C23.7709 14.8247 23.5203 14.739 23.2602 14.7045C23.0002 14.67 22.7359 14.6874 22.4826 14.7557C22.2293 14.8241 21.9921 14.942 21.7847 15.1027C21.5774 15.2634 21.4039 15.4636 21.2745 15.6918L15.8457 25.2274C15.3038 26.1787 15.5788 27.3855 16.5207 27.9368L17.3957 28.4368C17.9661 28.7649 18.6127 28.9374 19.2707 28.9368C19.6526 28.9368 20.0782 28.8543 20.4413 28.7749C21.7082 28.4993 24.7082 26.8118 26.2157 22.7837C27.7232 18.7555 28.2707 16.6037 28.2707 14.9368C28.2707 11.2493 26.7426 7.72867 23.9682 5.02805Z" fill="#EEE727"/>
</svg>