<svg width="25" height="25" viewBox="0 0 25 25" fill="none" xmlns="http://www.w3.org/2000/svg">
<path d="M17.3165 1.56177H6.81645C5.57381 1.56177 4.56645 2.56913 4.56645 3.81177V20.3118C4.56645 21.5544 5.57381 22.5618 6.81645 22.5618H17.3165C18.5591 22.5618 19.5665 21.5544 19.5665 20.3118V3.81177C19.5665 2.56913 18.5591 1.56177 17.3165 1.56177Z" stroke="#B1B1B1" stroke-linejoin="round"/>
<path d="M9.81645 3.81177H14.3165" stroke="#B1B1B1" stroke-linecap="round" stroke-linejoin="round"/>
<path d="M17.4974 20.5617L17.4974 20.5618C17.5069 20.5619 17.5163 20.56 17.5249 20.5561C17.5324 20.5528 17.5392 20.548 17.5449 20.5421C17.5539 20.5304 17.5604 20.5169 17.5641 20.5025C17.5681 20.4866 17.5685 20.47 17.5652 20.4539L17.5635 20.4454L17.5635 20.4454C17.4379 19.7663 17.0487 19.1896 16.4093 18.7739L17.4974 20.5617ZM17.4974 20.5617H17.4894M17.4974 20.5617H17.4894M17.4894 20.5617H11.1435L11.1435 20.5617M17.4894 20.5617L11.1435 20.5617M11.1435 20.5617L11.1355 20.5618M11.1435 20.5617L11.1355 20.5618M11.1355 20.5618C11.126 20.5619 11.1166 20.56 11.108 20.5561C11.1005 20.5528 11.0937 20.548 11.088 20.5421C11.079 20.5304 11.0725 20.5169 11.0688 20.5025C11.0648 20.4866 11.0644 20.47 11.0677 20.4539L11.0678 20.454M11.1355 20.5618L11.0678 20.454M11.0678 20.454L11.0693 20.4454M11.0678 20.454L11.0693 20.4454M11.0693 20.4454C11.195 19.7663 11.5842 19.1896 12.2236 18.7739L11.0693 20.4454ZM14.3164 13.3117V13.3118L14.3236 13.3117C14.5126 13.3089 14.7 13.3457 14.8739 13.4195C15.0473 13.4931 15.2036 13.6019 15.3327 13.7392C15.5864 14.0137 15.7183 14.3892 15.6867 14.8112L15.6867 14.8117C15.62 15.7156 14.9443 16.343 14.3164 16.343C13.6883 16.343 13.0117 15.7154 12.9458 14.8114C12.9147 14.3817 13.0507 14.001 13.2981 13.7347C13.5464 13.4673 13.9022 13.3117 14.3164 13.3117ZM12.2237 18.7739C12.798 18.4006 13.5415 18.1867 14.3164 18.1867C15.0914 18.1867 15.8349 18.4006 16.4092 18.7739H12.2237Z" fill="#B1B1B1" stroke="#B1B1B1"/>
</svg>
