<svg width="15" height="14" viewBox="0 0 15 14" fill="none" xmlns="http://www.w3.org/2000/svg">
<path d="M8.86185 0.115853C7.94893 0.287704 7.24507 0.688689 6.48546 1.46918C6.02551 1.94177 5.78857 2.24967 5.63525 2.58621C5.30771 3.28077 5.13349 4.06842 5.13349 4.87039V5.55779L3.04282 7.70593L0.952148 9.86122V11.5869C0.952148 13.3126 0.952148 13.3197 1.1194 13.5202L1.28666 13.7207H3.00797H4.72929L4.89655 13.5202C5.04289 13.3412 5.0638 13.2553 5.0638 12.6824V12.0523L5.72585 12.0237C6.61787 11.995 6.68755 11.9234 6.73634 11.0141L6.77118 10.3553L7.41232 10.3195L8.06043 10.2837L8.47856 9.85406L8.90367 9.42443L9.61449 9.41727C10.9734 9.40295 12.0257 8.96617 12.8968 8.06395C13.4683 7.47679 13.7749 6.9684 14.0397 6.22371C14.2 5.76545 14.2209 5.58644 14.2209 4.77014C14.2279 3.71756 14.1373 3.30225 13.7261 2.49312C13.4404 1.94177 12.7366 1.16844 12.1721 0.788937C11.2104 0.151656 10.0048 -0.0917997 8.86185 0.115853ZM10.5971 1.41189C11.524 1.65535 12.2975 2.31411 12.7087 3.20917C13.1826 4.21879 13.1826 5.24989 12.7087 6.26668C12.0466 7.69877 10.5971 8.40049 8.88276 8.10691L8.55522 8.04963L8.0883 8.53654L7.61442 9.03061L6.56908 9.04493L5.51678 9.06641L5.49587 9.91135L5.47497 10.7491H4.64567H3.8094V11.6084V12.4676H2.97313H2.13686V11.4079V10.3481L4.30419 8.13555L6.47152 5.92298L6.39486 5.30002C6.1161 3.08744 7.5517 1.33313 9.65631 1.30449C9.93506 1.29733 10.3602 1.34745 10.5971 1.41189Z" fill="#414B66"/>
<path d="M10.152 3.1308C9.53877 3.39573 9.62937 4.4698 10.2775 4.67029C10.8629 4.8493 11.3367 4.48412 11.3367 3.86116C11.3367 3.56758 11.3019 3.4745 11.1346 3.29549C11.0231 3.18092 10.8907 3.08067 10.835 3.08067C10.4865 3.04487 10.3332 3.05919 10.152 3.1308Z" fill="#5D5FEF"/>
</svg>
