<svg width="14" height="13" viewBox="0 0 14 13" fill="none" xmlns="http://www.w3.org/2000/svg">
<path d="M0.610352 2.85024C0.610352 1.77972 1.35285 0.912109 2.269 0.912109H12.2209C13.1357 0.912109 13.8795 1.77972 13.8795 2.85024V10.6027C13.8795 11.6717 13.1357 12.5409 12.2209 12.5409H2.269C1.35285 12.5409 0.610352 11.6717 0.610352 10.6027V2.85024ZM1.85433 2.85024V3.5195L6.3249 7.80761C6.85878 8.32242 7.63108 8.32242 8.16496 7.80761L12.6355 3.5195V2.82298C12.6355 2.58374 12.4489 2.33845 12.2209 2.33845H2.269C2.0399 2.33845 1.85433 2.58374 1.85433 2.82298V2.85024ZM1.85433 5.40009V10.6027C1.85433 10.8692 2.0399 11.0873 2.269 11.0873H12.2209C12.4489 11.0873 12.6355 10.8692 12.6355 10.6027V5.40009L8.95541 8.93111C7.96022 9.88503 6.52964 9.88503 5.51113 8.93111L1.85433 5.40009Z" fill="#414B66"/>
</svg>
