<svg width="23" height="20" viewBox="0 0 23 20" fill="none" xmlns="http://www.w3.org/2000/svg">
<path d="M11.7113 2.62402C6.81896 2.62402 2.83862 6.02825 2.83862 10.2125C2.83862 14.3967 6.81896 17.801 11.7113 17.801C16.6036 17.801 20.584 14.3967 20.584 10.2125C20.584 6.02825 16.6036 2.62402 11.7113 2.62402ZM16.3289 7.66926L10.5958 13.5065C10.5329 13.5706 10.4547 13.6224 10.3664 13.6583C10.278 13.6942 10.1817 13.7135 10.0839 13.7149H10.0724C9.97675 13.7148 9.88216 13.6976 9.79479 13.6643C9.70741 13.631 9.6292 13.5823 9.56522 13.5215L7.10817 11.1866C7.04577 11.13 6.99723 11.0633 6.9654 10.9904C6.93357 10.9175 6.9191 10.8399 6.92283 10.7622C6.92656 10.6845 6.94842 10.6082 6.98713 10.5378C7.02583 10.4674 7.0806 10.4043 7.14822 10.3522C7.21583 10.3002 7.29493 10.2603 7.38085 10.2347C7.46678 10.2092 7.55781 10.1986 7.64858 10.2036C7.73936 10.2086 7.82805 10.2291 7.90944 10.2638C7.99084 10.2985 8.0633 10.3468 8.12256 10.4058L10.0545 12.2417L15.2838 6.91844C15.4011 6.80245 15.5671 6.7306 15.7458 6.71842C15.9246 6.70624 16.1017 6.7547 16.239 6.85334C16.3763 6.95198 16.4627 7.09286 16.4795 7.24554C16.4964 7.39821 16.4423 7.55042 16.3289 7.66926Z" fill="url(#paint0_linear_426_5557)"/>
<defs>
<linearGradient id="paint0_linear_426_5557" x1="3.78927" y1="2.62402" x2="17.1733" y2="19.8919" gradientUnits="userSpaceOnUse">
<stop offset="0.115" stop-color="#21262D"/>
<stop offset="0.885" stop-color="#414B66"/>
</linearGradient>
</defs>
</svg>
