<svg width="22" height="21" viewBox="0 0 22 21" fill="none" xmlns="http://www.w3.org/2000/svg">
<g clip-path="url(#clip0_426_5538)">
<path d="M2.20807 20.0311H-0.12793V17.8877L13.0446 5.77137L15.4133 7.94514L2.20807 20.0311ZM15.9149 7.48256L13.5483 5.31113L14.893 4.11629C15.1007 3.92456 15.4192 3.81934 15.7144 3.81934C15.8597 3.81899 16.0037 3.84505 16.1379 3.89602C16.2722 3.94699 16.3942 4.02185 16.4967 4.11629L17.2188 4.77879C17.3213 4.8728 17.4025 4.98449 17.4577 5.10742C17.513 5.23035 17.5412 5.3621 17.5407 5.49507C17.5407 5.76786 17.4256 6.05819 17.2171 6.24954L15.9149 7.48256Z" fill="url(#paint0_linear_426_5538)"/>
</g>
<defs>
<linearGradient id="paint0_linear_426_5538" x1="0.818605" y1="3.81934" x2="15.334" y2="21.2757" gradientUnits="userSpaceOnUse">
<stop offset="0.115" stop-color="#21262D"/>
<stop offset="0.885" stop-color="#414B66"/>
</linearGradient>
<clipPath id="clip0_426_5538">
<path d="M0.00805664 10.9276C0.00805664 6.23649 0.00805664 3.89093 1.45946 2.42875C1.46815 2.41999 1.47688 2.41127 1.48563 2.40258C2.94782 0.951172 5.29338 0.951172 9.9845 0.951172H11.7776C16.4688 0.951172 18.8143 0.951172 20.2765 2.40258C20.2853 2.41127 20.294 2.41999 20.3027 2.42875C21.7541 3.89093 21.7541 6.23649 21.7541 10.9276C21.7541 15.6187 21.7541 17.9643 20.3027 19.4265C20.294 19.4352 20.2853 19.444 20.2765 19.4527C18.8143 20.9041 16.4688 20.9041 11.7776 20.9041H9.9845C5.29338 20.9041 2.94782 20.9041 1.48563 19.4527C1.47688 19.444 1.46815 19.4352 1.45946 19.4265C0.00805664 17.9643 0.00805664 15.6187 0.00805664 10.9276Z" fill="white"/>
</clipPath>
</defs>
</svg>
