<svg width="17" height="16" viewBox="0 0 17 16" fill="none" xmlns="http://www.w3.org/2000/svg">
<path d="M12.4604 3.09814L1.83036 13.7544L1.18622 15.3138L2.74559 14.6696L13.4018 4.03954L12.4604 3.09814ZM14.5874 0.971573L14.1268 1.43173L15.0682 2.37314L15.5288 1.91259C15.6496 1.79166 15.7175 1.62769 15.7175 1.45673C15.7175 1.28577 15.6496 1.1218 15.5288 1.00087L15.4995 0.971573C15.4396 0.911679 15.3685 0.864168 15.2903 0.831753C15.212 0.799338 15.1281 0.782654 15.0434 0.782654C14.9587 0.782654 14.8749 0.799338 14.7966 0.831753C14.7184 0.864168 14.6473 0.911679 14.5874 0.971573Z" stroke="black" stroke-linecap="round" stroke-linejoin="round"/>
</svg>