<svg width="11" height="15" viewBox="0 0 11 15" fill="none" xmlns="http://www.w3.org/2000/svg">
<path d="M6.77201 8.58718H4.59765C2.39611 8.58718 0.611328 10.6523 0.611328 13.1996C0.611328 13.6626 0.935896 14.0382 1.33611 14.0382H10.0335C10.4338 14.0382 10.7583 13.6626 10.7583 13.1996C10.7583 10.6523 8.97354 8.58718 6.77201 8.58718ZM1.72093 12.7802C1.89986 11.1266 3.1209 9.8451 4.59765 9.8451H6.77201C8.24785 9.8451 9.46957 11.1279 9.6485 12.7802H1.72093ZM5.68483 7.32927C7.28592 7.32927 8.58397 5.82736 8.58397 3.97481C8.58397 2.12226 7.28592 0.620361 5.68483 0.620361C4.08373 0.620361 2.78569 2.12226 2.78569 3.97481C2.78569 5.82762 4.0835 7.32927 5.68483 7.32927ZM5.68483 1.87828C6.6839 1.87828 7.49679 2.81884 7.49679 3.97481C7.49679 5.13079 6.6839 6.07135 5.68483 6.07135C4.68576 6.07135 3.87286 5.13053 3.87286 3.97481C3.87286 2.81884 4.68598 1.87828 5.68483 1.87828Z" fill="#414B66"/>
</svg>
